# xmcd CD database file
#
# Track frame offsets:
#	150
#	17450
#	32649
#	48676
#	62950
#	78672
#	95921
#	113712
#	131026
#	145503
#	164218
#	180985
#
# Disc length: 2627 seconds
#
# Revision: 0
# Processed by: cddbd v1.5.2PL0 Copyright (c) Steve Scherf et al.
# Submitted via: CDex 1.51
#
DISCID=a70a410c
DTITLE=Cledus T. Judd - Parodyziac!
DYEAR=2012
DGENRE=Country
TTITLE0=Cledus T. (Parody of 'Springsteen')
TTITLE1=Double D Cups (Parody of 'Red Solo Cup')
TTITLE2=Feel Like a Pawn Star (Parody of 'Feel Like A Rock Star')
TTITLE3=A Little More Hungry Than That (Parody of 'A Little More Country Than That')
TTITLE4=Honeymoon (Parody of '(Pontoon')
TTITLE5=Tebow (Parody of 'Banjo')
TTITLE6=Redneck Pool
TTITLE7=Tweetin' (parody of 'Creepin'')
TTITLE8=Living Single in a Double Wide
TTITLE9=The House That Broke Me (Parody of 'The House That Built Me')
TTITLE10=If This Is Country Music (Parody of 'This is Country Music')
TTITLE11=104 Amanda Street
EXTD=YEAR: 2012
EXTT0=
EXTT1=
EXTT2=
EXTT3=
EXTT4=
EXTT5=
EXTT6=
EXTT7=
EXTT8=
EXTT9=
EXTT10=
EXTT11=
PLAYORDER=
